M48
; DRILL file {KiCad (6.0.8-1)-1} date Monday, December 05, 2022 at 11:20:33 AM
; FORMAT={-:-/ absolute / inch / decimal}
; #@! TF.CreationDate,2022-12-05T11:20:33-05:00
; #@! TF.GenerationSoftware,Kicad,Pcbnew,(6.0.8-1)-1
; #@! TF.FileFunction,MixedPlating,1,2
FMAT,2
INCH
; #@! TA.AperFunction,Plated,PTH,ViaDrill
T1C0.0157
; #@! TA.AperFunction,Plated,PTH,ComponentDrill
T2C0.0300
; #@! TA.AperFunction,Plated,PTH,ViaDrill
T3C0.0315
; #@! TA.AperFunction,Plated,PTH,ComponentDrill
T4C0.0315
; #@! TA.AperFunction,Plated,PTH,ComponentDrill
T5C0.0354
; #@! TA.AperFunction,Plated,PTH,ComponentDrill
T6C0.0362
; #@! TA.AperFunction,Plated,PTH,ComponentDrill
T7C0.0394
; #@! TA.AperFunction,Plated,PTH,ComponentDrill
T8C0.0402
; #@! TA.AperFunction,Plated,PTH,ComponentDrill
T9C0.0472
; #@! TA.AperFunction,Plated,PTH,ComponentDrill
T10C0.0512
; #@! TA.AperFunction,NonPlated,NPTH,ComponentDrill
T11C0.0858
; #@! TA.AperFunction,NonPlated,NPTH,ComponentDrill
T12C0.0906
; #@! TA.AperFunction,NonPlated,NPTH,ComponentDrill
T13C0.0945
; #@! TA.AperFunction,NonPlated,NPTH,ComponentDrill
T14C0.1142
; #@! TA.AperFunction,NonPlated,NPTH,ComponentDrill
T15C0.1496
%
G90
G05
T1
X-0.005Y1.9625
X-0.0025Y4.45
X0.0475Y5.17
X0.13Y5.6908
X0.505Y5.9675
X0.61Y3.9
X0.61Y3.51
X0.68Y5.2975
X0.6875Y5.3525
X0.74Y3.83
X0.74Y3.355
X0.7688Y0.8963
X0.8025Y3.73
X0.8075Y0.8675
X0.903Y3.1365
X0.92Y5.7225
X0.991Y3.1645
X0.9965Y3.8425
X1.0415Y3.7973
X1.07Y3.8325
X1.1025Y3.7975
X1.1025Y1.23
X1.131Y3.835
X1.1375Y1.1925
X1.14Y5.7225
X1.165Y3.8025
X1.1925Y5.765
X1.2625Y4.78
X1.2625Y4.655
X1.292Y3.9332
X1.295Y3.9725
X1.3075Y3.185
X1.32Y3.095
X1.3577Y3.1844
X1.37Y3.0425
X1.3925Y2.3925
X1.4Y3.1825
X1.42Y4.21
X1.4434Y3.1811
X1.4593Y4.2128
X1.49Y3.18
X1.5125Y3.095
X1.5375Y3.18
X1.5575Y3.0425
X1.7325Y2.62
X1.749Y5.07
X1.7644Y2.655
X1.7929Y2.62
X1.8215Y2.6525
X1.8337Y4.8462
X1.85Y2.615
X1.8785Y2.6525
X1.9125Y2.62
X1.9475Y2.6525
X1.965Y1.4925
X2.2675Y5.88
X2.305Y2.4725
X2.3125Y5.8825
X2.345Y2.435
X2.4225Y2.3725
X2.495Y0.7975
X2.4975Y0.7525
X2.83Y2.175
X2.83Y1.3275
X2.8575Y1.3725
X2.8575Y1.275
X2.8625Y1.4575
X2.87Y2.2125
X2.9825Y1.46
X2.9825Y1.3675
X2.985Y1.2825
X2.985Y1.19
X3.239Y5.957
X3.4375Y2.419
X3.519Y0.511
X3.54Y2.52
X3.5625Y2.3625
X3.5925Y2.32
X3.6325Y6.15
X3.6425Y6.195
X3.6525Y6.255
X3.68Y2.5375
X3.775Y2.5375
X3.895Y2.485
X4.02Y3.67
X4.047Y0.7785
X4.0758Y0.7517
X4.085Y3.6725
X4.175Y2.615
X4.1975Y3.315
X4.2075Y2.5725
X4.2315Y2.5314
X4.24Y3.315
X4.245Y3.2725
X4.2849Y3.272
X4.4325Y3.0075
X4.485Y5.3725
X4.485Y3.495
X4.485Y2.4225
X4.515Y3.4675
X4.5175Y2.46
X4.5225Y2.394
X4.525Y4.62
X4.53Y4.8
X4.545Y3.5025
X4.71Y1.455
X4.7125Y1.625
X4.715Y1.72
X4.7225Y2.5575
X4.7225Y2.48
X4.73Y5.665
X4.75Y5.62
X4.78Y1.2675
X4.87Y1.4525
X4.935Y1.9625
X4.9375Y1.2025
X4.9675Y1.9325
X4.9675Y1.23
X5.0Y1.9625
X5.0Y1.2025
X5.03Y1.935
X5.03Y1.23
X5.0825Y1.2325
X5.1625Y2.1825
X5.1625Y2.14
X5.1775Y1.65
X5.25Y3.14
X5.265Y2.9925
X5.375Y4.645
X5.385Y0.4925
X5.405Y3.1325
X5.4375Y2.1825
X5.4375Y2.1375
X5.5075Y2.48
X5.5325Y0.945
X5.565Y5.0125
X5.79Y1.64
X5.815Y1.5975
X5.845Y3.2325
X5.94Y3.3075
T2
X0.835Y0.5775
X0.897Y0.3365
X0.935Y0.5775
X0.9757Y0.3365
X1.035Y0.5775
X1.0545Y0.3365
X1.1332Y0.3365
X1.135Y0.5775
X1.212Y0.3365
X1.235Y0.5775
X1.2907Y0.3365
X1.335Y0.5775
T3
X1.1175Y3.0
X1.3Y1.44
X1.3Y1.32
X1.39Y1.715
X1.39Y1.58
X1.56Y1.44
X1.81Y1.315
X5.265Y1.6125
X5.4575Y1.535
T4
X0.58Y5.8825
X0.58Y5.5825
X0.64Y1.0375
X0.64Y0.7375
X0.645Y1.6525
X0.8175Y6.1675
X0.8775Y3.8875
X0.8775Y3.5875
X0.945Y1.6525
X0.96Y4.8975
X1.1175Y6.1675
X1.26Y4.8975
X2.9825Y2.095
X2.9825Y1.795
X3.1125Y2.095
X3.1125Y1.795
X3.7925Y2.12
X3.7925Y1.955
X3.7925Y1.7
X3.795Y1.16
X3.795Y1.0225
X3.8075Y1.405
X4.0925Y2.12
X4.0925Y1.955
X4.0925Y1.7
X4.095Y1.16
X4.095Y1.0225
X4.1075Y1.405
X4.2325Y1.1575
X4.2325Y1.0275
X4.245Y2.115
X4.245Y1.955
X4.245Y1.4025
X4.2475Y1.7075
X4.33Y3.835
X4.33Y3.535
X4.5325Y1.1575
X4.5325Y1.0275
X4.545Y2.115
X4.545Y1.955
X4.545Y1.4025
X4.5475Y1.7075
X5.02Y5.8775
X5.1075Y1.965
X5.1075Y1.665
X5.32Y5.8775
X5.33Y5.025
X5.33Y4.725
X5.335Y4.2625
X5.335Y3.9625
X5.44Y3.2925
X5.44Y2.9925
T5
X4.6025Y5.1496
X4.6025Y5.0496
X4.6025Y4.9496
X4.6025Y4.8496
X4.6025Y4.7496
X4.6025Y4.6496
X4.6025Y4.5496
X4.6025Y4.4496
X4.6025Y4.3496
X4.6025Y4.2496
X4.6025Y4.1496
X4.6025Y4.0496
X4.6025Y3.9496
X4.6025Y3.8496
X4.6025Y3.7496
X4.6025Y3.6496
X4.6025Y3.5496
X4.6025Y3.4496
X4.6025Y3.3496
X4.6025Y3.2496
X4.7025Y5.1496
X4.7025Y5.0496
X4.7025Y4.9496
X4.7025Y4.8496
X4.7025Y4.7496
X4.7025Y4.6496
X4.7025Y4.5496
X4.7025Y4.4496
X4.7025Y4.3496
X4.7025Y4.2496
X4.7025Y4.1496
X4.7025Y4.0496
X4.7025Y3.9496
X4.7025Y3.8496
X4.7025Y3.7496
X4.7025Y3.6496
X4.7025Y3.5496
X4.7025Y3.4496
X4.7025Y3.3496
X4.7025Y3.2496
X5.05Y5.145
X5.05Y5.045
X5.05Y4.945
X5.05Y4.845
X5.05Y4.745
X5.05Y4.645
X5.05Y4.545
X5.05Y4.445
X5.05Y4.345
X5.05Y4.245
X5.05Y4.145
X5.05Y4.045
X5.05Y3.945
X5.05Y3.845
X5.05Y3.745
X5.05Y3.645
X5.05Y3.545
X5.05Y3.445
X5.05Y3.345
X5.05Y3.245
X5.15Y5.145
X5.15Y5.045
X5.15Y4.945
X5.15Y4.845
X5.15Y4.745
X5.15Y4.645
X5.15Y4.545
X5.15Y4.445
X5.15Y4.345
X5.15Y4.245
X5.15Y4.145
X5.15Y4.045
X5.15Y3.945
X5.15Y3.845
X5.15Y3.745
X5.15Y3.645
X5.15Y3.545
X5.15Y3.445
X5.15Y3.345
X5.15Y3.245
T6
X0.8372Y6.34
X0.9356Y6.34
X1.0144Y6.34
X1.1128Y6.34
X4.2312Y0.4625
X4.3296Y0.4625
X4.4084Y0.4625
X4.5068Y0.4625
T7
X0.3063Y5.8494
X0.3063Y5.751
X0.3063Y5.6526
X0.3063Y5.5542
X0.3063Y3.3083
X0.3063Y3.2099
X0.3063Y3.1115
X0.3063Y3.0131
X0.3063Y1.9344
X0.3063Y1.836
X0.3063Y1.7376
X0.3063Y1.6392
X0.3063Y0.9001
X0.3063Y0.8017
X0.3063Y0.7033
X0.3063Y0.6049
X0.3093Y4.8219
X0.3093Y4.7234
X0.3093Y4.625
X0.3093Y4.5266
X3.301Y1.9865
X3.301Y1.6865
X3.301Y1.4225
X3.301Y1.1225
X3.401Y1.9865
X3.401Y1.6865
X3.401Y1.4225
X3.401Y1.1225
X3.501Y1.9865
X3.501Y1.6865
X3.501Y1.4225
X3.501Y1.1225
X3.601Y1.9865
X3.601Y1.6865
X3.601Y1.4225
X3.601Y1.1225
X5.7037Y3.2669
X5.7037Y3.1685
X5.7037Y3.0701
X5.7037Y2.9717
X5.7037Y1.9751
X5.7037Y1.8767
X5.7037Y1.7783
X5.7037Y1.6799
X5.7057Y6.1819
X5.7057Y6.0835
X5.7057Y5.9851
X5.7057Y5.8867
X5.7057Y5.2119
X5.7057Y5.1135
X5.7057Y5.0151
X5.7057Y4.9167
X5.7057Y4.2384
X5.7057Y4.14
X5.7057Y4.0416
X5.7057Y3.9431
T8
X0.4639Y4.2663
X0.4639Y4.1663
X0.4639Y4.0663
X0.5639Y4.2663
X0.5639Y4.1663
X0.5639Y4.0663
X0.6639Y4.2663
X0.6639Y4.1663
X0.6639Y4.0663
X0.7639Y4.2663
X0.7639Y4.1663
X0.7639Y4.0663
X0.8639Y4.2663
X0.8639Y4.1663
X0.8639Y4.0663
X0.9639Y4.1663
X0.9639Y4.0663
X1.0639Y4.1663
X1.0639Y4.0663
X1.1639Y4.1663
X1.1639Y4.0663
X1.2639Y4.1663
X1.2639Y4.0663
X1.3639Y4.1663
X1.3639Y4.0663
X1.8089Y6.2213
X1.8089Y6.1213
X1.8089Y6.0213
X1.8589Y2.2863
X1.8589Y2.1863
X1.8589Y2.0863
X1.9089Y6.2213
X1.9089Y6.1213
X1.9089Y6.0213
X1.9589Y2.2863
X1.9589Y2.1863
X1.9589Y2.0863
X2.0089Y6.2213
X2.0089Y6.1213
X2.0089Y6.0213
X2.0589Y2.2863
X2.0589Y2.1863
X2.0589Y2.0863
X2.1089Y6.2213
X2.1089Y6.1213
X2.1089Y6.0213
X2.1589Y2.2863
X2.1589Y2.1863
X2.1589Y2.0863
X2.2089Y6.2213
X2.2089Y6.1213
X2.2089Y6.0213
X2.2589Y2.2863
X2.2589Y2.1863
X2.2589Y2.0863
X2.3089Y6.1213
X2.3089Y6.0213
X2.3589Y2.1863
X2.3589Y2.0863
X2.4089Y6.1213
X2.4089Y6.0213
X2.4589Y2.1863
X2.4589Y2.0863
X2.5089Y6.1213
X2.5089Y6.0213
X2.5589Y2.1863
X2.5589Y2.0863
X2.6089Y6.1213
X2.6089Y6.0213
X2.6589Y2.1863
X2.6589Y2.0863
X2.7089Y6.1213
X2.7089Y6.0213
X2.7589Y2.1863
X2.7589Y2.0863
X3.1861Y2.8237
X3.1861Y2.7237
X3.2861Y2.8237
X3.2861Y2.7237
X3.345Y0.27
X3.3861Y2.8237
X3.3861Y2.7237
X3.445Y0.27
X3.4861Y2.8237
X3.4861Y2.7237
X3.545Y0.27
X3.5861Y2.8237
X3.5861Y2.7237
X3.645Y0.27
X3.6861Y2.8237
X3.6861Y2.7237
X3.6861Y2.6237
X3.745Y0.27
X3.7861Y2.8237
X3.7861Y2.7237
X3.7861Y2.6237
X3.8861Y2.8237
X3.8861Y2.7237
X3.8861Y2.6237
X3.9861Y2.8237
X3.9861Y2.7237
X3.9861Y2.6237
X4.0861Y2.8237
X4.0861Y2.7237
X4.0861Y2.6237
X4.5961Y0.8687
X4.5961Y0.7687
X4.6475Y6.0994
X4.6475Y5.9994
X4.6475Y5.8994
X4.6475Y5.7994
X4.6475Y5.6994
X4.6961Y0.8687
X4.6961Y0.7687
X4.7961Y0.8687
X4.7961Y0.7687
X4.8961Y0.8687
X4.8961Y0.7687
X4.9961Y0.8687
X4.9961Y0.7687
X5.0961Y0.8687
X5.0961Y0.7687
X5.0961Y0.6687
X5.1961Y0.8687
X5.1961Y0.7687
X5.1961Y0.6687
X5.2961Y0.8687
X5.2961Y0.7687
X5.2961Y0.6687
X5.3961Y0.8687
X5.3961Y0.7687
X5.3961Y0.6687
X5.4961Y0.8687
X5.4961Y0.7687
X5.4961Y0.6687
T9
X0.3063Y6.2825
X0.3063Y6.1447
X0.3063Y5.2514
X0.3063Y5.1136
X0.3063Y3.7414
X0.3063Y3.6036
X0.3063Y2.3675
X0.3063Y2.2297
X0.3063Y1.3332
X0.3063Y1.1954
X0.6075Y2.255
X0.7453Y2.255
X0.8831Y2.255
X1.0209Y2.255
X1.1587Y2.255
X1.2965Y2.255
X1.895Y4.2375
X1.98Y0.31
X2.0328Y4.2375
X2.1178Y0.31
X2.1706Y4.2375
X2.2556Y0.31
X2.3084Y4.2375
X2.3934Y0.31
X2.4462Y4.2375
X2.5312Y0.31
X2.584Y4.2375
X2.669Y0.31
X2.9732Y0.1925
X3.111Y0.1925
X3.3935Y4.64
X3.5313Y4.64
X3.6691Y4.64
X3.8069Y4.64
X3.9447Y4.64
X4.0825Y4.64
X4.6785Y2.68
X4.8163Y2.68
X4.9541Y2.68
X5.0919Y2.68
X5.2297Y2.68
X5.3675Y2.68
X5.7017Y2.6764
X5.7017Y2.5386
X5.7017Y1.3944
X5.7017Y1.2566
X5.7037Y5.5914
X5.7037Y5.4536
X5.7037Y4.6214
X5.7037Y4.4836
X5.7037Y3.6577
X5.7037Y3.5199
T10
X3.295Y6.4945
X3.495Y6.4945
X5.14Y0.2775
X5.34Y0.2775
T11
X3.3856Y0.8302
X3.9052Y0.3106
T12
X0.7163Y6.4467
X1.2337Y6.4467
X4.1103Y0.3558
X4.6277Y0.3558
T13
X4.6802Y6.2384
X5.3101Y5.7069
T14
X0.195Y4.295
X0.195Y2.62
X0.7428Y4.9597
X0.7428Y2.6762
X1.54Y6.25
X1.54Y4.575
X1.59Y2.315
X1.59Y0.64
X1.63Y4.295
X1.63Y2.62
X2.6719Y4.9597
X2.6719Y2.6762
X2.92Y4.27
X2.92Y2.595
X2.975Y6.25
X2.975Y4.575
X3.025Y2.315
X3.025Y0.64
X4.33Y2.315
X4.33Y0.64
X4.355Y4.27
X4.355Y2.595
X5.765Y2.315
X5.765Y0.64
T15
X0.2118Y6.5444
X0.2118Y0.2303
X5.7717Y0.2303
X5.7725Y6.541
T0
M30
