G04 #@! TF.GenerationSoftware,KiCad,Pcbnew,(6.0.8-1)-1*
G04 #@! TF.CreationDate,2022-12-05T11:20:18-05:00*
G04 #@! TF.ProjectId,Control Board,436f6e74-726f-46c2-9042-6f6172642e6b,rev?*
G04 #@! TF.SameCoordinates,Original*
G04 #@! TF.FileFunction,Soldermask,Top*
G04 #@! TF.FilePolarity,Negative*
%FSLAX46Y46*%
G04 Gerber Fmt 4.6, Leading zero omitted, Abs format (unit mm)*
G04 Created by KiCad (PCBNEW (6.0.8-1)-1) date 2022-12-05 11:20:18*
%MOMM*%
%LPD*%
G01*
G04 APERTURE LIST*
%ADD10C,3.200000*%
%ADD11C,1.650000*%
%ADD12C,2.500000*%
%ADD13R,2.500000X2.500000*%
%ADD14C,6.500000*%
%ADD15R,1.750000X1.750000*%
%ADD16C,1.750000*%
%ADD17C,1.600000*%
%ADD18O,1.600000X1.600000*%
%ADD19R,1.000000X1.000000*%
%ADD20C,1.524000*%
%ADD21C,4.600000*%
%ADD22C,2.850000*%
%ADD23R,1.800000X1.800000*%
%ADD24C,1.800000*%
%ADD25C,3.800000*%
%ADD26C,3.400000*%
%ADD27C,1.560000*%
%ADD28C,1.700000*%
%ADD29R,2.400000X2.400000*%
%ADD30C,2.400000*%
%ADD31R,1.508000X1.508000*%
%ADD32C,1.508000*%
G04 APERTURE END LIST*
D10*
X134876500Y144955000D03*
X118876500Y158455000D03*
D11*
X118046500Y154925000D03*
X118046500Y152385000D03*
X118046500Y149845000D03*
X118046500Y147305000D03*
X118046500Y144765000D03*
D12*
X88773000Y164960300D03*
D13*
X83693000Y164960300D03*
D14*
X146602000Y5849600D03*
X146620400Y166140400D03*
X5379600Y5849600D03*
D15*
X48133000Y107632500D03*
D16*
X51633000Y107632500D03*
X55133000Y107632500D03*
X58633000Y107632500D03*
X62133000Y107632500D03*
X65633000Y107632500D03*
D17*
X104013000Y29464000D03*
D18*
X96393000Y29464000D03*
D14*
X5379600Y166227500D03*
D17*
X75755500Y53213000D03*
D18*
X75755500Y45593000D03*
D17*
X96393000Y25971500D03*
D18*
X104013000Y25971500D03*
D17*
X96329500Y53848000D03*
D18*
X103949500Y53848000D03*
D17*
X107505500Y26098500D03*
D18*
X115125500Y26098500D03*
D17*
X107823000Y53721000D03*
D18*
X115443000Y53721000D03*
D19*
X121348500Y42481500D03*
X121412000Y33845500D03*
X85128100Y151307800D03*
X85090000Y145415000D03*
X89408000Y9207500D03*
X89382600Y11328400D03*
X121335800Y40144700D03*
X121348500Y37973000D03*
X74295000Y38163500D03*
X74168000Y33591500D03*
X74295000Y29083000D03*
X104457500Y56908700D03*
X105791000Y23418800D03*
X74231500Y35941000D03*
X121348500Y35877500D03*
D17*
X20764500Y156654500D03*
D18*
X28384500Y156654500D03*
D17*
X135382000Y127635000D03*
D18*
X135382000Y120015000D03*
D17*
X135509000Y108267500D03*
D18*
X135509000Y100647500D03*
D20*
X116903500Y130800500D03*
X119443500Y130800500D03*
X116903500Y128260500D03*
X119443500Y128260500D03*
X116903500Y125720500D03*
X119443500Y125720500D03*
X116903500Y123180500D03*
X119443500Y123180500D03*
X116903500Y120640500D03*
X119443500Y120640500D03*
X116903500Y118100500D03*
X119443500Y118100500D03*
X116903500Y115560500D03*
X119443500Y115560500D03*
X116903500Y113020500D03*
X119443500Y113020500D03*
X116903500Y110480500D03*
X119443500Y110480500D03*
X116903500Y107940500D03*
X119443500Y107940500D03*
X116903500Y105400500D03*
X119443500Y105400500D03*
X116903500Y102860500D03*
X119443500Y102860500D03*
X116903500Y100320500D03*
X119443500Y100320500D03*
X116903500Y97780500D03*
X119443500Y97780500D03*
X116903500Y95240500D03*
X119443500Y95240500D03*
X116903500Y92700500D03*
X119443500Y92700500D03*
X116903500Y90160500D03*
X119443500Y90160500D03*
X116903500Y87620500D03*
X119443500Y87620500D03*
X116903500Y85080500D03*
X119443500Y85080500D03*
X116903500Y82540500D03*
X119443500Y82540500D03*
X128270000Y130683000D03*
X130810000Y130683000D03*
X128270000Y128143000D03*
X130810000Y128143000D03*
X128270000Y125603000D03*
X130810000Y125603000D03*
X128270000Y123063000D03*
X130810000Y123063000D03*
X128270000Y120523000D03*
X130810000Y120523000D03*
X128270000Y117983000D03*
X130810000Y117983000D03*
X128270000Y115443000D03*
X130810000Y115443000D03*
X128270000Y112903000D03*
X130810000Y112903000D03*
X128270000Y110363000D03*
X130810000Y110363000D03*
X128270000Y107823000D03*
X130810000Y107823000D03*
X128270000Y105283000D03*
X130810000Y105283000D03*
X128270000Y102743000D03*
X130810000Y102743000D03*
X128270000Y100203000D03*
X130810000Y100203000D03*
X128270000Y97663000D03*
X130810000Y97663000D03*
X128270000Y95123000D03*
X130810000Y95123000D03*
X128270000Y92583000D03*
X130810000Y92583000D03*
X128270000Y90043000D03*
X130810000Y90043000D03*
X128270000Y87503000D03*
X130810000Y87503000D03*
X128270000Y84963000D03*
X130810000Y84963000D03*
X128270000Y82423000D03*
X130810000Y82423000D03*
D21*
X67867000Y67976500D03*
X18867000Y67976500D03*
X67867000Y125976500D03*
X18867000Y125976500D03*
D22*
X18195000Y163746000D03*
X31335000Y163746000D03*
D16*
X28265000Y161036000D03*
X25765000Y161036000D03*
X23765000Y161036000D03*
X21265000Y161036000D03*
D15*
X103695500Y117856000D03*
D16*
X100195500Y117856000D03*
X96695500Y117856000D03*
X93195500Y117856000D03*
X89695500Y117856000D03*
X86195500Y117856000D03*
D15*
X15430500Y57277000D03*
D16*
X18930500Y57277000D03*
X22430500Y57277000D03*
X25930500Y57277000D03*
X29430500Y57277000D03*
X32930500Y57277000D03*
D23*
X79019400Y4889500D03*
D24*
X75519400Y4889500D03*
D20*
X21209000Y14668500D03*
X23749000Y14668500D03*
X26289000Y14668500D03*
X28829000Y14668500D03*
X31369000Y14668500D03*
X33909000Y14668500D03*
D15*
X136334500Y68072000D03*
D16*
X132834500Y68072000D03*
X129334500Y68072000D03*
X125834500Y68072000D03*
X122334500Y68072000D03*
X118834500Y68072000D03*
D17*
X129730500Y49911000D03*
D18*
X129730500Y42291000D03*
D17*
X79057500Y53213000D03*
D18*
X79057500Y45593000D03*
D17*
X104330500Y35687000D03*
D18*
X96710500Y35687000D03*
D19*
X85064600Y148551900D03*
X105791000Y21094700D03*
D17*
X115506500Y43370500D03*
D18*
X107886500Y43370500D03*
D17*
X103949500Y43180000D03*
D18*
X96329500Y43180000D03*
D17*
X103949500Y49657000D03*
D18*
X96329500Y49657000D03*
D17*
X115443000Y35623500D03*
D18*
X107823000Y35623500D03*
D17*
X115125500Y29400500D03*
D18*
X107505500Y29400500D03*
D17*
X115443000Y49657000D03*
D18*
X107823000Y49657000D03*
D25*
X76835000Y58801000D03*
X40386000Y16256000D03*
X40386000Y58801000D03*
X76835000Y16256000D03*
D17*
X70075000Y55531000D03*
X70075000Y52991000D03*
X67535000Y55531000D03*
X67535000Y52991000D03*
X64995000Y55531000D03*
X64995000Y52991000D03*
X62455000Y55531000D03*
X62455000Y52991000D03*
X59915000Y55531000D03*
X59915000Y52991000D03*
X57375000Y55531000D03*
X57375000Y52991000D03*
X54835000Y55531000D03*
X54835000Y52991000D03*
X52295000Y55531000D03*
X52295000Y52991000D03*
X49755000Y55531000D03*
X49755000Y52991000D03*
X47215000Y55531000D03*
X47215000Y52991000D03*
X57375000Y58071000D03*
X54835000Y58071000D03*
X52295000Y58071000D03*
X49755000Y58071000D03*
X47215000Y58071000D03*
D25*
X4953000Y109093000D03*
X41402000Y109093000D03*
X4953000Y66548000D03*
X41402000Y66548000D03*
D17*
X34642000Y105823000D03*
X34642000Y103283000D03*
X32102000Y105823000D03*
X32102000Y103283000D03*
X29562000Y105823000D03*
X29562000Y103283000D03*
X27022000Y105823000D03*
X27022000Y103283000D03*
X24482000Y105823000D03*
X24482000Y103283000D03*
X21942000Y105823000D03*
X21942000Y103283000D03*
X19402000Y105823000D03*
X19402000Y103283000D03*
X16862000Y105823000D03*
X16862000Y103283000D03*
X14322000Y105823000D03*
X14322000Y103283000D03*
X11782000Y105823000D03*
X11782000Y103283000D03*
X21942000Y108363000D03*
X19402000Y108363000D03*
X16862000Y108363000D03*
X14322000Y108363000D03*
X11782000Y108363000D03*
D25*
X109982000Y58801000D03*
X146431000Y58801000D03*
X146431000Y16256000D03*
X109982000Y16256000D03*
D17*
X116742000Y19526000D03*
X116742000Y22066000D03*
X119282000Y19526000D03*
X119282000Y22066000D03*
X121822000Y19526000D03*
X121822000Y22066000D03*
X124362000Y19526000D03*
X124362000Y22066000D03*
X126902000Y19526000D03*
X126902000Y22066000D03*
X129442000Y19526000D03*
X129442000Y22066000D03*
X131982000Y19526000D03*
X131982000Y22066000D03*
X134522000Y19526000D03*
X134522000Y22066000D03*
X137062000Y19526000D03*
X137062000Y22066000D03*
X139602000Y19526000D03*
X139602000Y22066000D03*
X129442000Y16986000D03*
X131982000Y16986000D03*
X134522000Y16986000D03*
X137062000Y16986000D03*
X139602000Y16986000D03*
D25*
X75565000Y116205000D03*
X75565000Y158750000D03*
X39116000Y158750000D03*
X39116000Y116205000D03*
D17*
X68805000Y155480000D03*
X68805000Y152940000D03*
X66265000Y155480000D03*
X66265000Y152940000D03*
X63725000Y155480000D03*
X63725000Y152940000D03*
X61185000Y155480000D03*
X61185000Y152940000D03*
X58645000Y155480000D03*
X58645000Y152940000D03*
X56105000Y155480000D03*
X56105000Y152940000D03*
X53565000Y155480000D03*
X53565000Y152940000D03*
X51025000Y155480000D03*
X51025000Y152940000D03*
X48485000Y155480000D03*
X48485000Y152940000D03*
X45945000Y155480000D03*
X45945000Y152940000D03*
X56105000Y158020000D03*
X53565000Y158020000D03*
X51025000Y158020000D03*
X48485000Y158020000D03*
X45945000Y158020000D03*
D15*
X50292000Y7874000D03*
D16*
X53792000Y7874000D03*
X57292000Y7874000D03*
X60792000Y7874000D03*
X64292000Y7874000D03*
X67792000Y7874000D03*
D19*
X104457500Y59055000D03*
X74231500Y31305500D03*
X74295000Y40513000D03*
D26*
X85993000Y21088000D03*
X99193000Y7888000D03*
D27*
X84963000Y6858000D03*
X87503000Y6858000D03*
X90043000Y6858000D03*
X92583000Y6858000D03*
X95123000Y6858000D03*
D17*
X109982000Y97409000D03*
D18*
X109982000Y89789000D03*
D22*
X117542600Y9037500D03*
X104402600Y9037500D03*
D16*
X107472600Y11747500D03*
X109972600Y11747500D03*
X111972600Y11747500D03*
X114472600Y11747500D03*
D25*
X110617000Y65913000D03*
X74168000Y65913000D03*
X110617000Y108458000D03*
X74168000Y108458000D03*
D17*
X80928000Y69183000D03*
X80928000Y71723000D03*
X83468000Y69183000D03*
X83468000Y71723000D03*
X86008000Y69183000D03*
X86008000Y71723000D03*
X88548000Y69183000D03*
X88548000Y71723000D03*
X91088000Y69183000D03*
X91088000Y71723000D03*
X93628000Y69183000D03*
X93628000Y71723000D03*
X96168000Y69183000D03*
X96168000Y71723000D03*
X98708000Y69183000D03*
X98708000Y71723000D03*
X101248000Y69183000D03*
X101248000Y71723000D03*
X103788000Y69183000D03*
X103788000Y71723000D03*
X93628000Y66643000D03*
X96168000Y66643000D03*
X98708000Y66643000D03*
X101248000Y66643000D03*
X103788000Y66643000D03*
D28*
X91465400Y50457100D03*
X88925400Y50457100D03*
X86385400Y50457100D03*
X83845400Y50457100D03*
X83845400Y42837100D03*
X86385400Y42837100D03*
X88925400Y42837100D03*
X91465400Y42837100D03*
X91465400Y36131500D03*
X88925400Y36131500D03*
X86385400Y36131500D03*
X83845400Y36131500D03*
X83845400Y28511500D03*
X86385400Y28511500D03*
X88925400Y28511500D03*
X91465400Y28511500D03*
D20*
X22783800Y8547100D03*
X24783800Y8547100D03*
X26783800Y8547100D03*
X28783800Y8547100D03*
X30783800Y8547100D03*
X32783800Y8547100D03*
D17*
X22288500Y98742500D03*
D18*
X22288500Y91122500D03*
D29*
X7780000Y159575500D03*
D30*
X7780000Y156075500D03*
D29*
X144824000Y31918500D03*
D30*
X144824000Y35418500D03*
D17*
X138176000Y76009500D03*
D18*
X138176000Y83629500D03*
D31*
X144924000Y149521500D03*
D32*
X144924000Y152021500D03*
X144924000Y154521500D03*
X144924000Y157021500D03*
D17*
X32004000Y124396500D03*
D18*
X24384000Y124396500D03*
D31*
X7780000Y148575500D03*
D32*
X7780000Y146075500D03*
X7780000Y143575500D03*
X7780000Y141075500D03*
D29*
X144824000Y64480500D03*
D30*
X144824000Y67980500D03*
D17*
X127508000Y149288500D03*
D18*
X135128000Y149288500D03*
D29*
X144874000Y89406000D03*
D30*
X144874000Y92906000D03*
D31*
X144874000Y75480500D03*
D32*
X144874000Y77980500D03*
X144874000Y80480500D03*
X144874000Y82980500D03*
D17*
X14732000Y149415500D03*
D18*
X14732000Y141795500D03*
D29*
X144874000Y138521500D03*
D30*
X144874000Y142021500D03*
D17*
X16256000Y18732500D03*
D18*
X16256000Y26352500D03*
D31*
X7780000Y22863500D03*
D32*
X7780000Y20363500D03*
X7780000Y17863500D03*
X7780000Y15363500D03*
D29*
X7780000Y33863500D03*
D30*
X7780000Y30363500D03*
D31*
X7780000Y84031500D03*
D32*
X7780000Y81531500D03*
X7780000Y79031500D03*
X7780000Y76531500D03*
D31*
X7857000Y122475000D03*
D32*
X7857000Y119975000D03*
X7857000Y117475000D03*
X7857000Y114975000D03*
D31*
X144924000Y100156000D03*
D32*
X144924000Y102656000D03*
X144924000Y105156000D03*
X144924000Y107656000D03*
D29*
X144874000Y113883500D03*
D30*
X144874000Y117383500D03*
D29*
X7780000Y133385500D03*
D30*
X7780000Y129885500D03*
D29*
X7780000Y95031500D03*
D30*
X7780000Y91531500D03*
D29*
X7780000Y60134500D03*
D30*
X7780000Y56634500D03*
D17*
X24003000Y41973500D03*
D18*
X16383000Y41973500D03*
D31*
X144874000Y42668500D03*
D32*
X144874000Y45168500D03*
X144874000Y47668500D03*
X144874000Y50168500D03*
D13*
X130556000Y7048500D03*
D12*
X135636000Y7048500D03*
D31*
X144924000Y124883500D03*
D32*
X144924000Y127383500D03*
X144924000Y129883500D03*
X144924000Y132383500D03*
D31*
X7780000Y49134500D03*
D32*
X7780000Y46634500D03*
X7780000Y44134500D03*
X7780000Y41634500D03*
M02*
